Coordinates
version=1
nRows=9
nColumns=24
inDegrees=yes

Units are S.I. units (second, meters, Newtons, ...)
Angles are in degrees.

endheader
time	pelvis_tilt	pelvis_list	pelvis_rotation	pelvis_tx	pelvis_ty	pelvis_tz	hip_flexion_r	hip_adduction_r	hip_rotation_r	knee_angle_r	ankle_angle_r	subtalar_angle_r	mtp_angle_r	hip_flexion_l	hip_adduction_l	hip_rotation_l	knee_angle_l	ankle_angle_l	subtalar_angle_l	mtp_angle_l	lumbar_extension	lumbar_bending	lumbar_rotation
      3.34500000	     23.39909888	     -3.35981134	      7.38443711	      0.20333532	      1.03681795	      0.05446170	    -16.85191106	      6.34944972	    -10.85690965	    -12.14981769	      9.27784039	     -7.84039926	      8.31322865	     -9.20097870	    -11.91289124	     -1.90592749	    -56.55706002	     -0.99028686	    -15.14578631	     43.76780613	    -37.42912390	      7.23479493	      1.26162442
      3.35000000	     23.39727233	     -3.25332965	      7.35429908	      0.20807862	      1.03728409	      0.05482761	    -17.31642641	      6.31592067	    -10.75551888	    -11.86142000	      9.39039755	     -7.78816835	      8.31225469	     -8.59870976	    -11.73985980	     -1.90029633	    -56.48231217	     -0.67279737	    -15.16773161	     43.74464063	    -37.45979474	      7.10798402	      1.28892939
      3.35500000	     23.44873929	     -3.13013895	      7.31042770	      0.21287780	      1.03781248	      0.05521568	    -17.85858044	      6.27451255	    -10.64361378	    -11.54617991	      9.52984383	     -7.83739605	      7.76560233	     -8.09449486	    -11.55866377	     -1.92627030	    -56.34414204	     -0.07714061	    -14.75332643	     41.57007250	    -37.54237527	      6.95851698	      1.32828061
      3.36000000	     23.43131886	     -3.01833708	      7.28453994	      0.21760777	      1.03820323	      0.05552918	    -18.30141830	      6.22973271	    -10.56857254	    -11.26800757	      9.65413956	     -7.78857396	      7.77099421	     -7.50139949	    -11.36520981	     -1.92247298	    -56.15433227	      0.22849539	    -14.75135641	     41.57861013	    -37.55645467	      6.82799120	      1.34583212
      3.36500000	     23.44641048	     -2.87042577	      7.23681275	      0.22236878	      1.03863258	      0.05584843	    -18.78147670	      6.14354124	    -10.53329380	    -10.99981469	      9.79519438	     -7.80335096	      7.75396450	     -6.99141400	    -11.13033952	     -1.94173352	    -55.87084850	      0.58866557	    -14.56418945	     41.54020336	    -37.60919827	      6.65465005	      1.34733063
      3.37000000	     23.53116402	     -2.75963523	      7.15963678	      0.22714667	      1.03912741	      0.05621536	    -19.36778040	      6.09927323	    -10.38847493	    -10.66181436	      9.86971940	     -7.77381219	      7.65801993	     -6.59103410	    -10.95120674	     -2.03711444	    -55.51217112	      0.93400782	    -14.35928271	     41.23819495	    -37.73415673	      6.50168462	      1.41433763
      3.37500000	     23.52554607	     -2.63715300	      7.07514491	      0.23183585	      1.03947440	      0.05655473	    -19.82208792	      6.02719175	    -10.22270584	    -10.38430430	     10.02170288	     -7.85661341	      7.11858991	     -6.08714217	    -10.72105688	     -2.09939054	    -55.13621231	      1.37943505	    -14.13131940	     39.37249480	    -37.77471547	      6.32733263	      1.47707306
      3.38000000	     23.50947337	     -2.51509169	      7.00066235	      0.23654106	      1.03976126	      0.05686020	    -20.24946717	      5.94581949	    -10.14945737	    -10.13991382	     10.17589747	     -7.81681494	      7.11754714	     -5.59016210	    -10.49751272	     -2.17002328	    -54.68507237	      1.68961420	    -13.97800779	     39.36527894	    -37.80121162	      6.15940181	      1.51769524
      3.38500000	     23.54061808	     -2.38494835	      6.90329789	      0.24125691	      1.04010604	      0.05717629	    -20.74546600	      5.85534546	    -10.02937631	     -9.86280833	     10.29710545	     -7.81253222	      7.09389970	     -5.18710413	    -10.26770803	     -2.28211548	    -54.14299097	      1.96991792	    -13.82537563	     39.29600188	    -37.87941117	      5.97427540	      1.58056339
